<svg width="369" height="21" viewBox="0 0 369 21" fill="none" xmlns="http://www.w3.org/2000/svg">
<rect width="22" height="4" fill="#00C800"/>
<rect y="4" width="22" height="4" fill="#FF8700"/>
<rect y="8" width="22" height="4" fill="#E1000E"/>
<rect y="12" width="22" height="4" fill="#AC006E"/>
<rect y="16" width="22" height="4" fill="#008AE2"/>
<path d="M28.3271 12.7841H32.1375C32.1375 12.8696 32.1439 12.9222 32.1567 12.9419C32.1567 13.1852 32.1888 13.3496 32.2529 13.4351C32.3171 13.5205 32.439 13.5962 32.6186 13.6619C32.997 13.7803 33.9015 13.8395 35.332 13.8395C36.1531 13.8395 36.8362 13.8263 37.3815 13.8C37.9267 13.7737 38.3373 13.731 38.6131 13.6718C39.1519 13.5534 39.4823 13.3101 39.6042 12.9419C39.7068 12.6132 39.7581 11.8866 39.7581 10.7622C39.4759 11.091 39.1968 11.3211 38.921 11.4526C38.5041 11.6433 37.9684 11.7814 37.3141 11.8668C36.6662 11.9523 35.765 11.9951 34.6103 11.9951C32.0701 11.9951 30.3959 11.8175 29.5876 11.4625C29.0167 11.206 28.6094 10.7786 28.3656 10.1803C28.1219 9.58192 28 8.70082 28 7.53699C28 6.09041 28.1924 5.08767 28.5773 4.52877C28.9686 3.96986 29.6518 3.58849 30.6268 3.38466C31.1143 3.28603 31.7686 3.21041 32.5897 3.15781C33.4172 3.10521 34.4147 3.0789 35.5822 3.0789C37.5771 3.0789 39.0878 3.14795 40.1141 3.28603C41.1469 3.42411 41.8878 3.65753 42.3368 3.9863C42.8564 4.3611 43.1964 4.96274 43.3568 5.79123C43.5171 6.61973 43.5973 8.18137 43.5973 10.4762C43.5973 12.2252 43.5203 13.4614 43.3664 14.1847C43.1162 15.4011 42.3208 16.154 40.9801 16.4433C39.6459 16.726 37.4456 16.8674 34.3794 16.8674C32.9233 16.8674 31.8296 16.8148 31.0983 16.7096C30.367 16.611 29.7929 16.4334 29.376 16.177C28.9654 15.914 28.6864 15.5523 28.5388 15.0921C28.3977 14.6252 28.3271 13.8559 28.3271 12.7841ZM35.6495 6.10685C33.9176 6.10685 32.8559 6.18247 32.4646 6.3337C32.0733 6.48493 31.8777 6.88932 31.8777 7.54685C31.8777 7.95452 31.9226 8.25041 32.0124 8.43452C32.1086 8.61205 32.3107 8.74685 32.6186 8.8389C32.9329 8.92438 33.847 8.96712 35.3609 8.96712C37.5419 8.96712 38.8023 8.89479 39.1423 8.75014C39.354 8.66466 39.5015 8.52986 39.5849 8.34575C39.6747 8.16164 39.7196 7.88548 39.7196 7.51726C39.7196 7.14247 39.6747 6.8663 39.5849 6.68877C39.4951 6.50466 39.3251 6.37315 39.075 6.29425C38.6388 6.16931 37.497 6.10685 35.6495 6.10685Z" fill="white"/>
<path d="M52.4315 3.0789C54.9268 3.0789 56.7261 3.1611 57.8295 3.32548C58.9392 3.48329 59.7218 3.99945 60.1772 4.87397C60.4018 5.29479 60.5397 5.78466 60.591 6.34356C60.6487 6.89589 60.6776 8.10247 60.6776 9.96329C60.6776 10.6997 60.6744 11.2751 60.668 11.6893C60.6615 12.097 60.6551 12.4718 60.6487 12.8137C60.6487 13.1753 60.607 13.5764 60.5236 14.017C60.3504 15.0164 59.8501 15.743 59.0226 16.1967C58.689 16.3742 58.2849 16.5123 57.8102 16.611C57.5023 16.6636 57.1912 16.7063 56.8769 16.7392C56.569 16.7721 56.2226 16.7885 55.8377 16.7885C55.4913 16.7885 54.93 16.7984 54.1538 16.8181C53.3841 16.8444 52.8132 16.8575 52.4411 16.8575C49.9394 16.8575 48.1689 16.7786 47.1298 16.6208C45.9559 16.4433 45.1412 15.9238 44.6858 15.0625C44.4613 14.6416 44.3201 14.1518 44.2624 13.5929C44.2111 13.034 44.1854 11.7649 44.1854 9.78575C44.1854 9.34521 44.1854 8.90466 44.1854 8.46411C44.1918 8.01699 44.1982 7.56986 44.2047 7.12274C44.2047 6.93205 44.2143 6.74137 44.2335 6.55068C44.2592 6.35342 44.2945 6.14301 44.3394 5.91945C44.5126 4.92 45.0129 4.19342 45.8404 3.73973C46.1804 3.54904 46.5813 3.41096 47.0432 3.32548C47.3511 3.27288 47.6622 3.23014 47.9765 3.19726C48.2908 3.16438 48.6404 3.14795 49.0253 3.14795C49.3653 3.14795 49.7566 3.14137 50.1992 3.12822C51.3025 3.09534 52.0466 3.0789 52.4315 3.0789ZM52.191 6.58027C50.3692 6.58027 49.2594 6.70192 48.8617 6.94521C48.6116 7.10301 48.4352 7.39562 48.3325 7.82301C48.2363 8.25041 48.1882 8.94411 48.1882 9.90411C48.1882 10.4499 48.201 10.9167 48.2267 11.3047C48.2523 11.6926 48.294 11.9951 48.3518 12.2121C48.4672 12.6263 48.6885 12.9123 49.0157 13.0701C49.2466 13.1688 49.5096 13.2378 49.8047 13.2773L52.1717 13.3562C52.9479 13.3562 53.5605 13.3496 54.0095 13.3364C54.465 13.3167 54.7953 13.2937 55.0006 13.2674C55.7126 13.1885 56.1681 12.9518 56.3669 12.5573C56.5722 12.1562 56.6748 11.2915 56.6748 9.96329C56.6748 8.90466 56.6203 8.16493 56.5112 7.74411C56.4022 7.31671 56.1809 7.02411 55.8473 6.8663C55.61 6.75452 55.3309 6.68548 55.0102 6.65918L52.191 6.58027Z" fill="white"/>
<path d="M61.4879 9.69699V7.14247H63.2872C63.2872 6.62959 63.3065 6.20548 63.3449 5.87014C63.3834 5.53479 63.438 5.24877 63.5085 5.01205C63.624 4.60438 63.8549 4.23945 64.2013 3.91726C64.5734 3.56877 65.0416 3.32877 65.6061 3.19726C66.1706 3.06575 67.027 3 68.1752 3C68.4061 3 68.7301 3.00986 69.147 3.02959C69.564 3.04274 69.8238 3.04932 69.9264 3.04932V5.40658L69.0027 5.38685C68.0341 5.38685 67.4054 5.52164 67.1168 5.79123C66.9949 5.90959 66.9083 6.05753 66.857 6.23507C66.8313 6.34027 66.8089 6.46849 66.7896 6.61973C66.7768 6.76438 66.7704 6.93863 66.7704 7.14247H70.1958V9.69699H66.7704V16.6997H63.2872V9.69699H61.4879Z" fill="white"/>
<path d="M69.6927 7.14247H73.5223L76.178 14.086L79.1416 7.14247H83L78.035 17.9326C77.5668 18.9584 77.2492 19.5962 77.0824 19.846C76.9477 20.0696 76.7264 20.2833 76.4185 20.4871C75.8669 20.829 75.0201 21 73.8783 21H72.9546C72.6852 21 72.4927 20.9836 72.3773 20.9507V18.4849L73.1567 18.4751C73.7404 18.4751 74.167 18.3633 74.4364 18.1397C74.7122 17.9162 74.988 17.4362 75.2639 16.6997H73.8494L69.6927 7.14247Z" fill="white"/>
<rect x="89" width="280" height="4" fill="#00C800"/>
<rect x="89" y="4" width="280" height="4" fill="#FF8700"/>
<rect x="89" y="8" width="280" height="4" fill="#E1000E"/>
<rect x="89" y="12" width="280" height="4" fill="#AC006E"/>
<rect x="89" y="16" width="280" height="4" fill="#008AE2"/>
</svg>
